<svg xmlns="http://www.w3.org/2000/svg" viewBox="0 0 527.149119 409.149623" role="img" aria-label="Vaquita" color="#000000">
<g id="cow-body" transform="translate(-24.841196,433.438327) scale(0.100000,-0.100000)" fill="#000000">
<path id="horn" d="M4229 4327 c-40 -18 -284 -285 -418 -456 -25 -31 -73 -91 -108 -135
-35 -43 -76 -99 -90 -125 -15 -25 -35 -57 -45 -70 -25 -34 -23 -77 7 -106 26
-27 72 -33 105 -15 10 5 35 38 56 72 64 107 435 563 441 542 1 -5 23 -115 49
-244 25 -129 54 -253 63 -275 10 -23 21 -57 25 -77 13 -72 93 -102 141 -53 32
31 33 85 4 152 -11 26 -43 158 -70 291 -41 202 -49 263 -49 351 l0 108 -22 20
c-31 28 -58 34 -89 20z"/>
<path id="main-outline" d="M2785 3824 c-66 -7 -178 -18 -250 -24 -182 -15 -264 -27 -385 -57
-160 -39 -316 -99 -388 -150 -79 -56 -208 -166 -234 -199 -12 -14 -20 -40 -20
-62 0 -27 7 -42 27 -59 28 -25 55 -29 86 -12 11 5 43 33 72 60 29 28 86 76
128 108 56 43 101 67 180 95 148 53 283 84 428 97 69 6 177 17 239 23 l114 12
-7 -31 c-22 -104 -26 -161 -21 -265 6 -97 13 -134 47 -235 45 -134 78 -200
183 -360 49 -74 107 -144 177 -214 156 -156 259 -243 330 -278 151 -75 390
-182 455 -206 40 -14 139 -40 220 -57 113 -23 195 -33 339 -41 105 -6 254 -9
333 -7 105 2 142 0 142 -9 0 -23 -106 -303 -115 -303 -1 0 -28 11 -59 25 -139
61 -310 105 -558 141 -318 46 -592 43 -1048 -12 -237 -28 -267 -33 -495 -80
-258 -53 -407 -97 -634 -185 -213 -83 -350 -148 -468 -220 -37 -23 -111 -67
-163 -96 -52 -30 -153 -93 -223 -141 -103 -69 -129 -91 -134 -114 -3 -15 -8
-28 -12 -28 -10 1 -69 83 -79 110 -5 14 -13 49 -17 79 -13 93 -77 129 -140 79
l-28 -22 6 -77 c3 -54 13 -96 31 -135 45 -99 142 -204 306 -334 74 -58 266
-149 420 -199 251 -81 464 -142 548 -156 213 -36 533 -51 762 -36 205 13 419
44 570 82 63 16 232 67 375 114 168 55 282 98 322 122 105 61 314 222 388 297
70 70 236 284 332 427 28 41 69 112 93 158 76 152 161 381 200 541 59 238 80
334 80 358 0 33 -43 72 -79 72 -17 0 -41 -10 -56 -23 -20 -17 -31 -45 -51
-132 -15 -60 -28 -116 -30 -122 -2 -10 -78 -12 -326 -9 l-323 4 -155 32 c-85
18 -189 44 -230 60 -41 15 -165 69 -274 121 l-199 94 -141 132 c-78 73 -161
157 -186 187 -78 96 -178 266 -214 366 -19 52 -40 115 -45 140 -16 69 -13 223
6 315 l17 83 69 7 c102 11 393 -4 425 -21 41 -21 71 -17 103 15 59 60 26 125
-79 155 -48 13 -105 16 -313 15 -140 -1 -308 -7 -374 -15z m1445 -2173 c222
-34 393 -78 520 -134 l52 -22 -64 -95 c-121 -180 -242 -335 -332 -425 -121
-119 -326 -264 -431 -304 -99 -38 -463 -152 -576 -181 -272 -70 -687 -96
-1029 -66 -102 9 -216 23 -254 31 -71 15 -323 89 -509 150 -181 58 -320 131
-425 224 l-33 29 25 6 c14 3 78 42 143 85 65 43 141 91 168 106 28 16 104 61
170 100 66 40 152 88 191 108 110 56 445 185 575 222 167 48 525 120 729 145
292 37 464 48 705 46 176 -2 264 -8 375 -25z"/>
<path id="nostril-right" d="M3620 1253 c-27 -14 -40 -31 -57 -73 -39 -95 -26 -206 28 -244 32
-22 95 -20 135 4 18 12 42 40 53 64 28 56 27 120 -1 176 -39 75 -99 103 -158
73z"/>
<path id="nostril-left" d="M2525 1089 c-44 -39 -58 -89 -53 -192 l3 -79 34 -30 c30 -27 39 -30
78 -25 80 9 126 73 126 177 1 151 -97 229 -188 149z"/>
<path id="ear-left" d="M645 3437 l-27 -23 1 -244 c1 -297 19 -646 35 -680 6 -14 24 -31 39
-38 35 -17 74 -5 100 30 l19 25 -11 177 c-6 97 -11 269 -11 382 l0 206 18 -7
c9 -3 46 -13 82 -21 81 -19 274 -95 338 -133 147 -88 252 -141 276 -141 38 0
76 41 76 83 0 18 -6 40 -12 49 -7 9 -31 26 -53 39 -22 12 -91 51 -153 86 -127
71 -301 146 -395 169 -34 9 -97 26 -140 40 -100 31 -148 31 -182 1z"/>
<path id="ear-right" d="M4773 3300 c-45 -10 -114 -32 -153 -49 -97 -40 -268 -139 -280 -162
-17 -31 -11 -74 13 -97 43 -41 64 -37 185 32 63 35 150 76 195 92 69 23 103
28 217 32 l136 4 84 -47 c47 -25 102 -63 124 -83 41 -40 67 -88 59 -110 -10
-25 -129 -107 -237 -162 l-107 -55 -115 0 c-104 0 -117 -2 -130 -20 -36 -48
-27 -99 22 -132 21 -13 47 -17 113 -17 47 1 111 6 141 13 69 16 264 117 352
182 37 28 81 71 97 96 25 38 31 57 31 102 0 125 -91 236 -275 336 l-110 60
-140 2 c-108 2 -159 -2 -222 -17z"/>
<path id="cheek-left" d="M815 2261 c-39 -10 -58 -20 -192 -103 -125 -78 -200 -151 -284 -274
-77 -114 -92 -154 -91 -243 1 -42 6 -99 11 -128 21 -110 96 -215 185 -261 40
-20 70 -27 138 -30 69 -3 101 0 155 16 71 22 229 118 272 166 35 38 34 91 -3
122 -15 13 -36 24 -46 24 -23 0 -70 -20 -70 -30 0 -10 -95 -72 -161 -105 -43
-22 -68 -28 -120 -28 -87 0 -128 24 -164 97 -20 41 -26 70 -28 132 l-2 79 57
85 c31 47 78 108 105 135 27 28 96 79 153 115 75 46 121 67 161 75 72 13 99
36 99 85 0 54 -32 80 -96 79 -27 -1 -62 -4 -79 -8z"/>
</g>
<g id="eyes-victory" fill="none" stroke="#000000" stroke-width="10" stroke-linecap="round">
  <path d="M 165.2 192.4 C 165.2 149.4 199.2 149.4 199.2 192.4" />
  <path d="M 315.2 163.4 C 315.2 122.4 347.2 122.4 347.2 163.4" />
</g>
</svg>
